<svg width="24" height="24" viewBox="0 0 24 24" fill="none" xmlns="http://www.w3.org/2000/svg">
<path d="M9.21701 2.74998H16.463C16.5503 2.74968 16.6364 2.77116 16.7133 2.81249C16.7902 2.85381 16.8556 2.91368 16.9036 2.98666C16.9515 3.05964 16.9805 3.14343 16.9879 3.23044C16.9954 3.31746 16.9809 3.40494 16.946 3.48498L14.111 10.102H18.89C18.93 10.1024 18.9691 10.1142 19.0026 10.1361C19.0361 10.158 19.0627 10.1889 19.0792 10.2254C19.0957 10.2619 19.1014 10.3023 19.0957 10.3419C19.09 10.3815 19.0731 10.4187 19.047 10.449L9.30101 21.16C9.27441 21.1997 9.23444 21.2287 9.18836 21.2415C9.14227 21.2543 9.09312 21.2502 9.04981 21.2298C9.00651 21.2095 8.97192 21.1743 8.95232 21.1307C8.93273 21.0871 8.92942 21.0378 8.94301 20.992L9.91001 13.252H5.43601C5.34912 13.2532 5.26329 13.2328 5.1862 13.1927C5.1091 13.1526 5.04314 13.094 4.99421 13.0222C4.94528 12.9504 4.9149 12.8676 4.90579 12.7812C4.89668 12.6947 4.90913 12.6074 4.94201 12.527L8.72201 3.07498C8.76208 2.97711 8.83078 2.89362 8.9191 2.83545C9.00743 2.77728 9.11127 2.74814 9.21701 2.74998Z" stroke="#163754" stroke-width="1.5" stroke-linecap="round" stroke-linejoin="round"/>
</svg>
