<svg width="177" height="74" viewBox="0 0 177 74" fill="none" xmlns="http://www.w3.org/2000/svg">
<g clip-path="url(#clip0_4106_70005)">
<path d="M62.0863 27.5597H64.242V30.3929H62.0863V27.5597ZM62.1285 20.4557V30.3929H56.697C55.7389 30.3929 54.9498 30.3294 54.33 30.2026C53.71 30.0616 53.231 29.8149 52.8928 29.4626C52.5547 29.0961 52.3222 28.5886 52.1954 27.9403C52.0686 27.2919 52.0052 26.4532 52.0052 25.4243C52.0052 24.3953 52.0686 23.5566 52.1954 22.9083C52.3222 22.2599 52.5547 21.7595 52.8928 21.4071C53.231 21.0406 53.71 20.794 54.33 20.6671C54.9498 20.5262 55.7389 20.4557 56.697 20.4557H62.1285ZM59.5924 23.2889H55.7882C55.4078 23.2889 55.126 23.3664 54.9428 23.5214C54.7596 23.6624 54.6681 23.8949 54.6681 24.2191V26.6294C54.6681 26.9536 54.7596 27.1932 54.9428 27.3483C55.126 27.4892 55.4078 27.5597 55.7882 27.5597H59.5924V23.2889ZM55.598 17.982C55.4148 17.982 55.2035 17.8974 54.964 17.7283C54.7385 17.5591 54.5413 17.3548 54.3722 17.1151C54.2031 16.8755 54.1186 16.6711 54.1186 16.502C54.1186 16.3046 54.2031 16.0932 54.3722 15.8677C54.5413 15.6422 54.7385 15.4449 54.964 15.2757C55.2035 15.1066 55.4078 15.022 55.5769 15.022C55.7882 15.022 55.9996 15.1066 56.2109 15.2757C56.4363 15.4449 56.6336 15.6422 56.8027 15.8677C56.9717 16.0932 57.0563 16.3046 57.0563 16.502C57.0563 16.6711 56.9717 16.8755 56.8027 17.1151C56.6336 17.3406 56.4363 17.5451 56.2109 17.7283C55.9854 17.8974 55.7812 17.982 55.598 17.982ZM59.1274 17.982C58.9442 17.982 58.7329 17.8974 58.4934 17.7283C58.2679 17.5591 58.0707 17.3548 57.9017 17.1151C57.7326 16.8755 57.648 16.6711 57.648 16.502C57.648 16.3046 57.7326 16.0932 57.9017 15.8677C58.0707 15.6422 58.2679 15.4449 58.4934 15.2757C58.7329 15.1066 58.9372 15.022 59.1063 15.022C59.3177 15.022 59.529 15.1066 59.7403 15.2757C59.9657 15.4449 60.163 15.6422 60.3321 15.8677C60.5012 16.0932 60.5857 16.3046 60.5857 16.502C60.5857 16.6711 60.5012 16.8755 60.3321 17.1151C60.163 17.3406 59.9657 17.5451 59.7403 17.7283C59.5149 17.8974 59.3106 17.982 59.1274 17.982ZM63.3931 30.3929V27.5597H74.5943V24.1134H67.8524C67.12 24.1134 66.556 23.9231 66.1617 23.5426C65.7813 23.1479 65.591 22.5911 65.591 21.8723C65.591 21.3649 65.6756 20.8081 65.8447 20.202C66.0137 19.5959 66.2462 18.9828 66.5421 18.3626C66.838 17.7283 67.1761 17.1292 67.5565 16.5654C67.9508 15.9875 68.3735 15.4801 68.8246 15.0431L70.8746 16.1637C70.5504 16.4879 70.2267 16.8614 69.9025 17.2843C69.5927 17.7071 69.2968 18.1582 69.0148 18.6374C68.7473 19.1026 68.5149 19.5606 68.3174 20.0117C68.1344 20.4628 68.0076 20.8856 67.937 21.2803H73.8546C74.6999 21.2803 75.3551 21.3789 75.8201 21.5763C76.285 21.7736 76.6159 22.1119 76.8134 22.5911C77.0108 23.0563 77.1093 23.7046 77.1093 24.5363V30.3929H63.3931ZM83.9541 27.5597H86.1944V30.3929H83.9541V27.5597ZM80.3402 36.1437L79.3891 33.8814C79.9386 33.6277 80.3613 33.3528 80.6572 33.0569C80.9669 32.7609 81.1783 32.3803 81.2912 31.9151C81.418 31.45 81.4814 30.8439 81.4814 30.0968V20.4557H83.9964V30.0968C83.9964 31.1681 83.8696 32.0772 83.616 32.8243C83.3762 33.5854 82.9886 34.2268 82.4536 34.7483C81.9318 35.2839 81.2278 35.7491 80.3402 36.1437ZM100.316 30.3929C99.33 30.3929 98.5269 30.3224 97.9067 30.1814C97.2866 30.0405 96.8078 29.8008 96.4696 29.4626C96.1315 29.1102 95.8917 28.6309 95.7511 28.0249C95.6242 27.4046 95.5608 26.6224 95.5608 25.678V22.3586H98.0758V26.4391C98.0758 26.8902 98.2099 27.1932 98.4774 27.3483C98.7449 27.4892 99.1464 27.5597 99.682 27.5597H102.282C102.366 27.2074 102.422 26.8268 102.451 26.418C102.479 25.9951 102.493 25.5089 102.493 24.9591C102.493 24.3249 102.437 23.6624 102.324 22.9717C102.225 22.2811 102.091 21.5763 101.922 20.8574L104.416 20.4769C104.543 20.8856 104.649 21.3437 104.733 21.8511C104.832 22.3445 104.902 22.8519 104.944 23.3734C104.987 23.8809 105.008 24.3671 105.008 24.8323C105.008 26.27 104.853 27.3906 104.543 28.194C104.233 28.9974 103.733 29.5683 103.042 29.9066C102.352 30.2308 101.443 30.3929 100.316 30.3929ZM93.0247 30.3929H91.1438V27.5597H93.9546C94.5041 27.5597 94.9057 27.4892 95.1593 27.3483C95.4268 27.1932 95.5608 26.8902 95.5608 26.4391V22.3586H98.0758V25.678C98.0758 26.6224 98.0124 27.4046 97.8856 28.0249C97.7588 28.6309 97.5191 29.1102 97.1671 29.4626C96.815 29.8008 96.3005 30.0405 95.6242 30.1814C94.9618 30.3224 94.0953 30.3929 93.0247 30.3929ZM91.1438 30.3929H85.353V27.5597H88.6288V22.3586H91.1438V30.3929ZM95.1804 17.982C94.9975 17.982 94.7861 17.8974 94.5464 17.7283C94.3212 17.5591 94.1237 17.3548 93.9546 17.1151C93.7856 16.8755 93.701 16.6711 93.701 16.502C93.701 16.3046 93.7856 16.0932 93.9546 15.8677C94.1237 15.6422 94.3212 15.4449 94.5464 15.2757C94.7861 15.1066 94.9902 15.022 95.1593 15.022C95.3706 15.022 95.582 15.1066 95.7933 15.2757C96.0185 15.4449 96.216 15.6422 96.3851 15.8677C96.5542 16.0932 96.6387 16.3046 96.6387 16.502C96.6387 16.6711 96.5542 16.8755 96.3851 17.1151C96.216 17.3406 96.0185 17.5451 95.7933 17.7283C95.5681 17.8974 95.3634 17.982 95.1804 17.982ZM98.7099 17.982C98.5269 17.982 98.3156 17.8974 98.0758 17.7283C97.8506 17.5591 97.6531 17.3548 97.4841 17.1151C97.315 16.8755 97.2304 16.6711 97.2304 16.502C97.2304 16.3046 97.315 16.0932 97.4841 15.8677C97.6531 15.6422 97.8506 15.4449 98.0758 15.2757C98.3156 15.1066 98.5196 15.022 98.6887 15.022C98.9001 15.022 99.1114 15.1066 99.3228 15.2757C99.548 15.4449 99.7454 15.6422 99.9145 15.8677C100.084 16.0932 100.168 16.3046 100.168 16.502C100.168 16.6711 100.084 16.8755 99.9145 17.1151C99.7454 17.3406 99.548 17.5451 99.3228 17.7283C99.0975 17.8974 98.8928 17.982 98.7099 17.982ZM96.9346 14.2397C96.7516 14.2397 96.5403 14.1551 96.3005 13.986C96.0753 13.8169 95.8779 13.6125 95.7088 13.3729C95.5397 13.1332 95.4552 12.9289 95.4552 12.7597C95.4552 12.5624 95.5397 12.3509 95.7088 12.1254C95.8779 11.8999 96.0753 11.7026 96.3005 11.5334C96.5403 11.3643 96.7444 11.2797 96.9134 11.2797C97.1248 11.2797 97.3361 11.3643 97.5475 11.5334C97.7727 11.7026 97.9702 11.8999 98.1392 12.1254C98.3083 12.3509 98.3928 12.5624 98.3928 12.7597C98.3928 12.9289 98.3083 13.1332 98.1392 13.3729C97.9702 13.5984 97.7727 13.8028 97.5475 13.986C97.3223 14.1551 97.1175 14.2397 96.9346 14.2397Z" fill="white"/>
<path d="M1.89119 62.5723L0.940147 60.31C1.48964 60.0563 1.91233 59.7814 2.20821 59.4854C2.51818 59.1894 2.72952 58.8089 2.84224 58.3437C2.96904 57.8786 3.03245 57.2725 3.03245 56.5254V46.8843H5.54743V56.5254C5.54743 57.5967 5.42063 58.5058 5.16701 59.2529C4.92749 60.014 4.54003 60.6554 4.00463 61.1769C3.48331 61.7125 2.77883 62.1776 1.89119 62.5723ZM4.27937 44.4106C4.09621 44.4106 3.88487 44.326 3.64534 44.1569C3.41991 43.9877 3.22265 43.7834 3.05358 43.5437C2.88451 43.3041 2.79997 43.0997 2.79997 42.9306C2.79997 42.7332 2.88451 42.5218 3.05358 42.2963C3.22265 42.0708 3.41991 41.8734 3.64534 41.7043C3.88487 41.5351 4.08916 41.4506 4.25824 41.4506C4.46958 41.4506 4.68092 41.5351 4.89227 41.7043C5.1177 41.8734 5.31495 42.0708 5.48403 42.2963C5.6531 42.5218 5.73764 42.7332 5.73764 42.9306C5.73764 43.0997 5.6531 43.3041 5.48403 43.5437C5.31495 43.7692 5.1177 43.9736 4.89227 44.1569C4.66684 44.326 4.46253 44.4106 4.27937 44.4106ZM9.1439 56.8214V43.5014H11.6589V53.9883H13.8991V56.8214H9.1439ZM24.9744 53.9883H26.496V56.8214H24.6785C24.2276 56.8214 23.8683 56.7298 23.6006 56.5466C23.347 56.3492 23.1427 56.0462 22.9877 55.6374L21.6563 52.1489C21.4027 51.5005 21.0927 50.9789 20.7264 50.5843C20.36 50.1896 19.9021 49.9077 19.3526 49.7386C18.8031 49.5554 18.1057 49.4637 17.2603 49.4637C16.9222 49.4637 16.5629 49.4708 16.1825 49.4849C15.8161 49.4989 15.4217 49.5342 14.999 49.5906L14.6185 46.7997C15.1116 46.7434 15.5837 46.7011 16.0345 46.6729C16.4854 46.6446 16.9151 46.6306 17.3237 46.6306C18.5354 46.6306 19.5569 46.7856 20.3882 47.0957C21.2336 47.4058 21.938 47.8921 22.5017 48.5546C23.0652 49.2029 23.5372 50.0557 23.9177 51.1129L24.9744 53.9883ZM21.4238 50.6689L23.7697 51.5146C23.502 52.4167 23.1498 53.1989 22.713 53.8614C22.2762 54.5239 21.769 55.0736 21.1913 55.5106C20.6136 55.9475 19.9725 56.2788 19.2681 56.5043C18.5777 56.7157 17.831 56.8214 17.0279 56.8214H13.0545V53.9883H17.4928C18.0704 53.9883 18.5777 53.8966 19.0145 53.7134C19.4512 53.5161 19.8246 53.2624 20.1346 52.9523C20.4446 52.6422 20.7052 52.2898 20.9166 51.8951C21.1279 51.5005 21.297 51.0917 21.4238 50.6689ZM19.6485 61.4729C19.4653 61.4729 19.254 61.3883 19.0145 61.2191C18.789 61.05 18.5918 60.8456 18.4227 60.606C18.2537 60.3664 18.1691 60.162 18.1691 59.9929C18.1691 59.7955 18.2537 59.5841 18.4227 59.3586C18.5918 59.1331 18.789 58.9357 19.0145 58.7666C19.254 58.5974 19.4583 58.5129 19.6274 58.5129C19.8387 58.5129 20.0501 58.5974 20.2614 58.7666C20.4868 58.9357 20.6841 59.1331 20.8532 59.3586C21.0223 59.5841 21.1068 59.7955 21.1068 59.9929C21.1068 60.162 21.0223 60.3594 20.8532 60.5849C20.6841 60.8245 20.4868 61.0289 20.2614 61.198C20.0359 61.3812 19.8317 61.4729 19.6485 61.4729ZM25.6443 56.8214V53.9883H28.9202V46.8843H31.4352V56.8214H25.6443ZM30.1883 44.4106C30.0051 44.4106 29.7937 44.326 29.5542 44.1569C29.3288 43.9877 29.1316 43.7834 28.9625 43.5437C28.7934 43.3041 28.7089 43.0997 28.7089 42.9306C28.7089 42.7332 28.7934 42.5218 28.9625 42.2963C29.1316 42.0708 29.3288 41.8734 29.5542 41.7043C29.7937 41.5351 29.9981 41.4506 30.1671 41.4506C30.3785 41.4506 30.5898 41.5351 30.8012 41.7043C31.0266 41.8734 31.2239 42.0708 31.3929 42.2963C31.562 42.5218 31.6465 42.7332 31.6465 42.9306C31.6465 43.0997 31.562 43.3041 31.3929 43.5437C31.2239 43.7692 31.0266 43.9736 30.8012 44.1569C30.5757 44.326 30.3714 44.4106 30.1883 44.4106ZM42.5697 47.73V43.5014H45.0847V47.3283C45.0847 47.8921 45.0565 48.3502 45.0001 48.7026C44.9579 49.0549 44.8592 49.3298 44.7043 49.5271C44.5633 49.7104 44.345 49.8514 44.0491 49.95V50.098C44.5845 50.6477 44.9579 51.1763 45.1692 51.6837C45.3806 52.1911 45.4862 52.762 45.4862 53.3963C45.4862 54.7071 45.0494 55.6586 44.1759 56.2506C43.3164 56.8426 41.8934 57.1386 39.9068 57.1386C38.5542 57.1386 37.4974 57.0188 36.7366 56.7791C35.9758 56.5395 35.4404 56.1589 35.1304 55.6374C34.8204 55.1018 34.6655 54.3971 34.6655 53.5232C34.6655 52.8325 34.7429 52.2405 34.8979 51.7471C35.0529 51.2397 35.3417 50.8098 35.7644 50.4574C36.1871 50.0909 36.793 49.7668 37.582 49.4849L42.5697 47.73ZM37.3495 54.3054H41.2382C41.8018 54.3054 42.2033 54.2068 42.4429 54.0094C42.6965 53.798 42.8233 53.5443 42.8233 53.2483C42.8233 53.0509 42.7599 52.8466 42.6331 52.6351C42.5063 52.4096 42.3231 52.2123 42.0836 52.0431L40.9635 51.134L37.3495 52.4237V54.3054ZM39.1248 49.6329L35.0459 46.3134L36.8 44.1992L42.1681 48.5969L39.1248 49.6329ZM48.8946 56.8214V43.5014H51.4096V56.8214H48.8946ZM59.4327 62.5723L58.4817 60.31C59.0312 60.0563 59.4538 59.7814 59.7497 59.4854C60.0597 59.1894 60.271 58.8089 60.3837 58.3437C60.5106 57.8786 60.574 57.2725 60.574 56.5254V46.8843H63.0889V56.5254C63.0889 57.5967 62.9621 58.5058 62.7085 59.2529C62.469 60.014 62.0816 60.6554 61.5461 61.1769C61.0248 61.7125 60.3203 62.1776 59.4327 62.5723ZM66.6854 56.8214V43.5014H69.2004V53.9883H71.4406V56.8214H66.6854ZM76.3867 53.9883H78.627V56.8214H70.5959V53.9883H73.8717V46.8843H76.3867V53.9883ZM73.3223 61.4729C73.1393 61.4729 72.928 61.3883 72.6882 61.2191C72.463 61.05 72.2655 60.8456 72.0965 60.606C71.9274 60.3664 71.8428 60.162 71.8428 59.9929C71.8428 59.7955 71.9274 59.5841 72.0965 59.3586C72.2655 59.1331 72.463 58.9357 72.6882 58.7666C72.928 58.5974 73.132 58.5129 73.3011 58.5129C73.5125 58.5129 73.7238 58.5974 73.9351 58.7666C74.161 58.9357 74.3578 59.1331 74.5269 59.3586C74.696 59.5841 74.7805 59.7955 74.7805 59.9929C74.7805 60.162 74.696 60.3594 74.5269 60.5849C74.3578 60.8245 74.161 61.0289 73.9351 61.198C73.7099 61.3812 73.5059 61.4729 73.3223 61.4729ZM76.8517 61.4729C76.6687 61.4729 76.4574 61.3883 76.2177 61.2191C75.9924 61.05 75.795 60.8456 75.6259 60.606C75.4568 60.3664 75.3723 60.162 75.3723 59.9929C75.3723 59.7955 75.4568 59.5841 75.6259 59.3586C75.795 59.1331 75.9924 58.9357 76.2177 58.7666C76.4574 58.5974 76.6615 58.5129 76.8306 58.5129C77.0419 58.5129 77.2532 58.5974 77.4646 58.7666C77.6905 58.9357 77.8873 59.1331 78.0563 59.3586C78.2254 59.5841 78.31 59.7955 78.31 59.9929C78.31 60.162 78.2254 60.3594 78.0563 60.5849C77.8873 60.8245 77.6905 61.0289 77.4646 61.198C77.2394 61.3812 77.0353 61.4729 76.8517 61.4729ZM89.4022 53.9883H92.8893V56.8214H89.4022V53.9883ZM82.1531 49.4637C82.1531 50.4645 82.4067 51.3031 82.9139 51.9797C83.4357 52.6563 84.2315 53.1637 85.3021 53.502C86.3734 53.8262 87.7398 53.9883 89.4022 53.9883V56.8214C88.0496 56.8214 86.7815 56.6171 85.598 56.2083C84.4145 55.7995 83.3723 55.2357 82.4701 54.5169C81.5825 53.798 80.885 52.9664 80.3778 52.022C79.8851 51.0635 79.6381 50.0346 79.6381 48.9352C79.6381 48.3714 79.8217 47.9203 80.1876 47.582C80.568 47.2296 81.1743 46.9829 82.0052 46.842C82.8367 46.7011 83.9429 46.6306 85.3232 46.6306C86.7326 46.6306 87.8528 46.7011 88.6836 46.842C89.5151 46.9829 90.1141 47.2296 90.48 47.582C90.8466 47.9203 91.0295 48.3714 91.0295 48.9352C91.0295 50.0346 90.7759 51.0635 90.2687 52.022C89.776 52.9805 89.0852 53.8191 88.1975 54.538C87.3099 55.2569 86.2677 55.8206 85.0696 56.2294C83.8861 56.6241 82.6115 56.8214 81.2443 56.8214V53.9883C82.9212 53.9883 84.2949 53.8262 85.3655 53.502C86.4368 53.1637 87.2253 52.6563 87.7326 51.9797C88.2543 51.3031 88.5145 50.4645 88.5145 49.4637H82.1531ZM77.7783 53.9883H81.2443V56.8214H77.7783V53.9883ZM100.811 46.6306C101.797 46.6306 102.593 46.7363 103.199 46.9477C103.805 47.1591 104.248 47.5045 104.53 47.9837C104.812 48.4489 104.953 49.0691 104.953 49.8443V56.8214H92.04V53.9883H102.438V49.6117C102.171 49.5554 101.881 49.5201 101.572 49.506C101.276 49.4778 100.924 49.4637 100.515 49.4637C99.8947 49.4637 99.2395 49.506 98.5494 49.5906C97.8731 49.6751 97.204 49.8091 96.5416 49.9923L95.5483 47.5397C96.0555 47.3283 96.5978 47.1591 97.1757 47.0323C97.7674 46.8914 98.373 46.7926 98.9932 46.7363C99.6134 46.6658 100.219 46.6306 100.811 46.6306ZM95.8231 55.9334C95.4004 55.4542 95.1184 54.8551 94.9777 54.1363C94.8509 53.4174 94.7875 52.6211 94.7875 51.7471C94.7875 51.0001 94.8581 50.2883 94.9988 49.6117C95.1395 48.9351 95.3231 48.2445 95.5483 47.5397L98.0844 48.1317C97.8447 48.8224 97.6545 49.4496 97.5138 50.0134C97.3731 50.5772 97.3025 51.1551 97.3025 51.7471C97.3025 52.2828 97.3236 52.7549 97.3659 53.1637C97.4081 53.5725 97.4854 53.946 97.5983 54.2843C97.7113 54.6226 97.8658 54.9468 98.0633 55.2569L95.8231 55.9334Z" fill="white"/>
<path d="M134.419 35.4479L130.049 30.628H143.161L147.749 35.4479L129.645 54.2888H115.844L134.419 35.4479Z" fill="white"/>
<path d="M154.524 35.4477L136.167 53.6316L135.512 54.2888H148.842L167.636 35.4477L148.842 16.6065H120.215C119.865 16.6065 119.777 17.0447 119.777 17.2637C119.777 17.7895 120.069 17.921 120.215 17.921H127.863C128.213 17.921 128.3 18.3592 128.3 18.5782C128.3 19.104 128.009 19.2355 127.863 19.2355H119.122C118.772 19.2355 118.684 19.6736 118.684 19.8928C118.684 20.4186 118.976 20.5501 119.122 20.5501H125.678C126.027 20.5501 126.114 20.9882 126.114 21.2073C126.114 21.7331 125.823 21.8646 125.678 21.8646H122.182C121.831 21.8646 121.744 22.3027 121.744 22.5218C121.744 23.0476 122.036 23.179 122.182 23.179H129.174C129.524 23.179 129.612 23.6172 129.612 23.8363C129.612 24.3621 129.32 24.4935 129.174 24.4935H121.963C121.439 24.4935 121.307 24.9317 121.307 25.1508C121.307 25.6766 121.744 25.808 121.963 25.808L145.346 26.0271L154.524 35.4477Z" fill="white"/>
<path d="M117.372 19.8243H116.501C116.138 19.8243 115.844 20.1185 115.844 20.4815C115.844 20.8445 116.138 21.1388 116.501 21.1388H117.372C117.735 21.1388 118.029 20.8445 118.029 20.4815C118.029 20.1185 117.735 19.8243 117.372 19.8243Z" fill="white"/>
<path d="M119.995 25.0822H119.123C118.76 25.0822 118.466 25.3764 118.466 25.7394C118.466 26.1024 118.76 26.3967 119.123 26.3967H119.995C120.357 26.3967 120.651 26.1024 120.651 25.7394C120.651 25.3764 120.357 25.0822 119.995 25.0822Z" fill="white"/>
<path d="M126.595 3.44302C133.578 0.639143 141.268 0.0830395 148.591 1.86285L149.298 2.04223C156.572 3.96621 163.072 8.11523 167.882 13.9189L168.342 14.4848C173.027 20.3748 175.761 27.5869 176.154 35.116L176.185 35.8438C176.417 43.1246 174.447 50.3068 170.53 56.4479L170.132 57.0583C165.951 63.3313 159.919 68.1355 152.884 70.8061L152.2 71.0578C145.102 73.5904 137.396 73.8381 130.16 71.7767L129.461 71.5699C122.36 69.3915 116.111 65.081 111.555 59.2353L111.253 58.8475L111.638 58.5417L114.88 55.9737L115.273 55.664L115.579 56.0582L115.95 56.526C119.827 61.3169 125.051 64.8531 130.963 66.6667L131.563 66.8445C137.773 68.6139 144.387 68.4011 150.479 66.2274L151.065 66.0115C157.102 63.7193 162.279 59.5969 165.867 54.2135C169.455 48.8301 171.268 42.4641 171.061 36.0077L171.035 35.3831C170.697 28.9218 168.351 22.7327 164.33 17.6781L163.936 17.1922C159.808 12.2117 154.23 8.65067 147.987 6.99955L147.381 6.84593C141.097 5.31857 134.497 5.79552 128.505 8.20159L127.926 8.44096C124.28 9.99093 120.989 12.2146 118.212 14.9713L117.733 15.4462L117.423 14.8474L115.44 11.0212L115.265 10.6857L115.543 10.4289C118.573 7.63139 122.078 5.35498 125.922 3.72111L126.595 3.44302Z" fill="white" stroke="white" stroke-width="1.5"/>
</g>
<defs>
<clipPath id="clip0_4106_70005">
<rect width="177" height="74" fill="white"/>
</clipPath>
</defs>
</svg>
