<svg width="177" height="74" viewBox="0 0 177 74" fill="none" xmlns="http://www.w3.org/2000/svg">
<g clip-path="url(#clip0_4106_69858)">
<mask id="mask0_4106_69858" style="mask-type:luminance" maskUnits="userSpaceOnUse" x="0" y="0" width="177" height="74">
<path d="M177 0H0V74H177V0Z" fill="white"/>
</mask>
<g mask="url(#mask0_4106_69858)">
<path d="M62.0862 27.5597H64.2419V30.3929H62.0862V27.5597ZM62.1285 20.4557V30.3929H56.6969C55.7388 30.3929 54.9498 30.3294 54.3299 30.2026C53.7099 30.0616 53.2309 29.8149 52.8928 29.4626C52.5546 29.0961 52.3221 28.5886 52.1953 27.9403C52.0685 27.2919 52.0051 26.4532 52.0051 25.4243C52.0051 24.3954 52.0685 23.5566 52.1953 22.9083C52.3221 22.2599 52.5546 21.7595 52.8928 21.4071C53.2309 21.0406 53.7099 20.794 54.3299 20.6671C54.9498 20.5262 55.7388 20.4557 56.6969 20.4557H62.1285ZM59.5923 23.2889H55.7882C55.4078 23.2889 55.1259 23.3664 54.9428 23.5214C54.7596 23.6624 54.6681 23.8949 54.6681 24.2191V26.6294C54.6681 26.9536 54.7596 27.1932 54.9428 27.3483C55.1259 27.4892 55.4078 27.5597 55.7882 27.5597H59.5923V23.2889ZM55.598 17.982C55.4148 17.982 55.2034 17.8974 54.9639 17.7283C54.7385 17.5591 54.5412 17.3548 54.3722 17.1151C54.2031 16.8755 54.1186 16.6711 54.1186 16.502C54.1186 16.3046 54.2031 16.0932 54.3722 15.8677C54.5412 15.6422 54.7385 15.4449 54.9639 15.2757C55.2034 15.1066 55.4078 15.022 55.5768 15.022C55.7882 15.022 55.9995 15.1066 56.2109 15.2757C56.4363 15.4449 56.6335 15.6422 56.8026 15.8677C56.9717 16.0932 57.0562 16.3046 57.0562 16.502C57.0562 16.6711 56.9717 16.8755 56.8026 17.1151C56.6335 17.3406 56.4363 17.5451 56.2109 17.7283C55.9854 17.8974 55.7811 17.982 55.598 17.982ZM59.1274 17.982C58.9442 17.982 58.7328 17.8974 58.4934 17.7283C58.2679 17.5591 58.0707 17.3548 57.9016 17.1151C57.7325 16.8755 57.648 16.6711 57.648 16.502C57.648 16.3046 57.7325 16.0932 57.9016 15.8677C58.0707 15.6422 58.2679 15.4449 58.4934 15.2757C58.7328 15.1066 58.9372 15.022 59.1063 15.022C59.3176 15.022 59.5289 15.1066 59.7403 15.2757C59.9657 15.4449 60.163 15.6422 60.3321 15.8677C60.5011 16.0932 60.5857 16.3046 60.5857 16.502C60.5857 16.6711 60.5011 16.8755 60.3321 17.1151C60.163 17.3406 59.9657 17.5451 59.7403 17.7283C59.5148 17.8974 59.3105 17.982 59.1274 17.982ZM63.393 30.3929V27.5597H74.5942V24.1134H67.8524C67.1199 24.1134 66.5559 23.9231 66.1616 23.5426C65.7812 23.1479 65.591 22.5911 65.591 21.8723C65.591 21.3649 65.6755 20.8081 65.8446 20.202C66.0137 19.5959 66.2462 18.9828 66.542 18.3626C66.8379 17.7283 67.1761 17.1292 67.5565 16.5654C67.9508 15.9875 68.3735 15.4801 68.8245 15.0431L70.8746 16.1637C70.5503 16.4879 70.2267 16.8614 69.9024 17.2843C69.5927 17.7071 69.2968 18.1582 69.0148 18.6374C68.7473 19.1026 68.5148 19.5606 68.3173 20.0117C68.1344 20.4628 68.0076 20.8856 67.9369 21.2803H73.8545C74.6999 21.2803 75.3551 21.3789 75.82 21.5763C76.285 21.7736 76.6159 22.1119 76.8133 22.5911C77.0108 23.0563 77.1092 23.7046 77.1092 24.5363V30.3929H63.393ZM83.9541 27.5597H86.1943V30.3929H83.9541V27.5597ZM80.3401 36.1437L79.3891 33.8814C79.9386 33.6277 80.3612 33.3529 80.6571 33.0569C80.9669 32.7609 81.1782 32.3803 81.2912 31.9151C81.418 31.45 81.4814 30.8439 81.4814 30.0969V20.4557H83.9964V30.0969C83.9964 31.1681 83.8696 32.0772 83.6159 32.8243C83.3762 33.5854 82.9885 34.2268 82.4536 34.7483C81.9318 35.2839 81.2278 35.7491 80.3401 36.1437ZM100.316 30.3929C99.33 30.3929 98.5269 30.3224 97.9067 30.1814C97.2865 30.0405 96.8077 29.8009 96.4696 29.4626C96.1314 29.1102 95.8917 28.6309 95.751 28.0249C95.6242 27.4046 95.5608 26.6224 95.5608 25.678V22.3586H98.0758V26.4391C98.0758 26.8902 98.2098 27.1932 98.4773 27.3483C98.7448 27.4892 99.1464 27.5597 99.682 27.5597H102.282C102.366 27.2074 102.422 26.8268 102.451 26.418C102.479 25.9951 102.493 25.5089 102.493 24.9591C102.493 24.3249 102.437 23.6624 102.324 22.9717C102.225 22.2811 102.091 21.5763 101.922 20.8574L104.416 20.4769C104.543 20.8856 104.649 21.3437 104.733 21.8511C104.831 22.3445 104.902 22.8519 104.944 23.3734C104.987 23.8809 105.008 24.3671 105.008 24.8323C105.008 26.27 104.853 27.3906 104.543 28.194C104.233 28.9974 103.733 29.5683 103.042 29.9066C102.352 30.2308 101.443 30.3929 100.316 30.3929ZM93.0247 30.3929H91.1437V27.5597H93.9546C94.5041 27.5597 94.9056 27.4892 95.1592 27.3483C95.4267 27.1932 95.5608 26.8902 95.5608 26.4391V22.3586H98.0758V25.678C98.0758 26.6224 98.0124 27.4046 97.8856 28.0249C97.7588 28.6309 97.519 29.1102 97.167 29.4626C96.815 29.8009 96.3005 30.0405 95.6242 30.1814C94.9618 30.3224 94.0953 30.3929 93.0247 30.3929ZM91.1437 30.3929H85.3529V27.5597H88.6287V22.3586H91.1437V30.3929ZM95.1804 17.982C94.9974 17.982 94.7861 17.8974 94.5463 17.7283C94.3211 17.5591 94.1237 17.3548 93.9546 17.1151C93.7855 16.8755 93.701 16.6711 93.701 16.502C93.701 16.3046 93.7855 16.0932 93.9546 15.8677C94.1237 15.6422 94.3211 15.4449 94.5463 15.2757C94.7861 15.1066 94.9902 15.022 95.1592 15.022C95.3706 15.022 95.5819 15.1066 95.7933 15.2757C96.0185 15.4449 96.216 15.6422 96.385 15.8677C96.5541 16.0932 96.6386 16.3046 96.6386 16.502C96.6386 16.6711 96.5541 16.8755 96.385 17.1151C96.216 17.3406 96.0185 17.5451 95.7933 17.7283C95.5681 17.8974 95.3633 17.982 95.1804 17.982ZM98.7098 17.982C98.5269 17.982 98.3155 17.8974 98.0758 17.7283C97.8506 17.5591 97.6531 17.3548 97.484 17.1151C97.3149 16.8755 97.2304 16.6711 97.2304 16.502C97.2304 16.3046 97.3149 16.0932 97.484 15.8677C97.6531 15.6422 97.8506 15.4449 98.0758 15.2757C98.3155 15.1066 98.5196 15.022 98.6887 15.022C98.9 15.022 99.1114 15.1066 99.3227 15.2757C99.5479 15.4449 99.7454 15.6422 99.9145 15.8677C100.084 16.0932 100.168 16.3046 100.168 16.502C100.168 16.6711 100.084 16.8755 99.9145 17.1151C99.7454 17.3406 99.5479 17.5451 99.3227 17.7283C99.0975 17.8974 98.8928 17.982 98.7098 17.982ZM96.9345 14.2397C96.7516 14.2397 96.5402 14.1551 96.3005 13.986C96.0753 13.8169 95.8778 13.6125 95.7087 13.3729C95.5397 13.1332 95.4551 12.9289 95.4551 12.7597C95.4551 12.5624 95.5397 12.3509 95.7087 12.1254C95.8778 11.8999 96.0753 11.7026 96.3005 11.5334C96.5402 11.3643 96.7443 11.2797 96.9134 11.2797C97.1247 11.2797 97.3361 11.3643 97.5474 11.5334C97.7726 11.7026 97.9701 11.8999 98.1392 12.1254C98.3083 12.3509 98.3928 12.5624 98.3928 12.7597C98.3928 12.9289 98.3083 13.1332 98.1392 13.3729C97.9701 13.5984 97.7726 13.8028 97.5474 13.986C97.3222 14.1551 97.1175 14.2397 96.9345 14.2397Z" fill="#F15C28"/>
<path d="M1.89123 62.5723L0.940186 60.31C1.48968 60.0563 1.91236 59.7814 2.20825 59.4854C2.51821 59.1894 2.72956 58.8089 2.84228 58.3437C2.96908 57.8786 3.03248 57.2725 3.03248 56.5254V46.8843H5.54747V56.5254C5.54747 57.5966 5.42066 58.5058 5.16705 59.2529C4.92753 60.014 4.54007 60.6554 4.00466 61.1769C3.48335 61.7125 2.77887 62.1776 1.89123 62.5723ZM4.27941 44.4106C4.09625 44.4106 3.8849 44.326 3.64538 44.1569C3.41995 43.9877 3.22269 43.7834 3.05362 43.5437C2.88454 43.3041 2.80001 43.0997 2.80001 42.9306C2.80001 42.7332 2.88454 42.5218 3.05362 42.2963C3.22269 42.0708 3.41995 41.8734 3.64538 41.7043C3.8849 41.5351 4.0892 41.4506 4.25828 41.4506C4.46962 41.4506 4.68096 41.5351 4.8923 41.7043C5.11774 41.8734 5.31499 42.0708 5.48407 42.2963C5.65314 42.5218 5.73768 42.7332 5.73768 42.9306C5.73768 43.0997 5.65314 43.3041 5.48407 43.5437C5.31499 43.7692 5.11774 43.9736 4.8923 44.1569C4.66687 44.326 4.46257 44.4106 4.27941 44.4106ZM9.14394 56.8214V43.5014H11.6589V53.9883H13.8992V56.8214H9.14394ZM24.9744 53.9883H26.4961V56.8214H24.6785C24.2276 56.8214 23.8684 56.7298 23.6007 56.5466C23.3471 56.3492 23.1427 56.0462 22.9878 55.6374L21.6563 52.1489C21.4027 51.5005 21.0927 50.9789 20.7264 50.5843C20.3601 50.1896 19.9022 49.9077 19.3527 49.7386C18.8032 49.5554 18.1058 49.4637 17.2604 49.4637C16.9222 49.4637 16.5629 49.4708 16.1825 49.4849C15.8162 49.4989 15.4217 49.5342 14.999 49.5906L14.6186 46.7997C15.1117 46.7434 15.5837 46.7011 16.0346 46.6729C16.4854 46.6446 16.9152 46.6306 17.3238 46.6306C18.5354 46.6306 19.557 46.7856 20.3883 47.0957C21.2336 47.4058 21.9381 47.8921 22.5017 48.5546C23.0653 49.2029 23.5373 50.0557 23.9177 51.1129L24.9744 53.9883ZM21.4238 50.6689L23.7698 51.5146C23.502 52.4166 23.1498 53.1989 22.713 53.8614C22.2762 54.5239 21.769 55.0736 21.1914 55.5106C20.6137 55.9475 19.9726 56.2788 19.2681 56.5043C18.5777 56.7157 17.831 56.8214 17.0279 56.8214H13.0546V53.9883H17.4929C18.0705 53.9883 18.5777 53.8966 19.0145 53.7134C19.4513 53.5161 19.8246 53.2624 20.1346 52.9523C20.4446 52.6422 20.7053 52.2898 20.9166 51.8951C21.128 51.5005 21.297 51.0917 21.4238 50.6689ZM19.6486 61.4729C19.4653 61.4729 19.254 61.3883 19.0145 61.2191C18.7891 61.05 18.5918 60.8456 18.4228 60.606C18.2537 60.3664 18.1692 60.162 18.1692 59.9929C18.1692 59.7955 18.2537 59.5841 18.4228 59.3586C18.5918 59.1331 18.7891 58.9357 19.0145 58.7666C19.254 58.5974 19.4583 58.5129 19.6274 58.5129C19.8388 58.5129 20.0501 58.5974 20.2615 58.7666C20.4869 58.9357 20.6841 59.1331 20.8532 59.3586C21.0223 59.5841 21.1068 59.7955 21.1068 59.9929C21.1068 60.162 21.0223 60.3594 20.8532 60.5849C20.6841 60.8245 20.4869 61.0289 20.2615 61.198C20.036 61.3812 19.8317 61.4729 19.6486 61.4729ZM25.6444 56.8214V53.9883H28.9203V46.8843H31.4352V56.8214H25.6444ZM30.1883 44.4106C30.0051 44.4106 29.7938 44.326 29.5543 44.1569C29.3288 43.9877 29.1316 43.7834 28.9625 43.5437C28.7934 43.3041 28.7089 43.0997 28.7089 42.9306C28.7089 42.7332 28.7934 42.5218 28.9625 42.2963C29.1316 42.0708 29.3288 41.8734 29.5543 41.7043C29.7938 41.5351 29.9981 41.4506 30.1672 41.4506C30.3785 41.4506 30.5899 41.5351 30.8012 41.7043C31.0266 41.8734 31.2239 42.0708 31.393 42.2963C31.562 42.5218 31.6465 42.7332 31.6465 42.9306C31.6465 43.0997 31.562 43.3041 31.393 43.5437C31.2239 43.7692 31.0266 43.9736 30.8012 44.1569C30.5757 44.326 30.3715 44.4106 30.1883 44.4106ZM42.5697 47.73V43.5014H45.0847V47.3283C45.0847 47.8921 45.0565 48.3502 45.0002 48.7026C44.9579 49.0549 44.8592 49.3298 44.7043 49.5271C44.5634 49.7104 44.345 49.8514 44.0491 49.95V50.098C44.5845 50.6477 44.9579 51.1763 45.1693 51.6837C45.3806 52.1911 45.4863 52.762 45.4863 53.3963C45.4863 54.7071 45.0494 55.6586 44.1759 56.2506C43.3164 56.8426 41.8934 57.1386 39.9068 57.1386C38.5542 57.1386 37.4975 57.0188 36.7367 56.7791C35.9758 56.5395 35.4404 56.1589 35.1304 55.6374C34.8204 55.1018 34.6655 54.3971 34.6655 53.5231C34.6655 52.8325 34.743 52.2405 34.898 51.7471C35.0529 51.2397 35.3418 50.8098 35.7645 50.4574C36.1872 50.0909 36.793 49.7668 37.582 49.4849L42.5697 47.73ZM37.3495 54.3054H41.2383C41.8018 54.3054 42.2034 54.2068 42.4429 54.0094C42.6965 53.798 42.8233 53.5443 42.8233 53.2483C42.8233 53.0509 42.7599 52.8466 42.6331 52.6351C42.5063 52.4096 42.3231 52.2123 42.0836 52.0431L40.9635 51.134L37.3495 52.4237V54.3054ZM39.1248 49.6329L35.0459 46.3134L36.8001 44.1991L42.1682 48.5969L39.1248 49.6329ZM48.8946 56.8214V43.5014H51.4096V56.8214H48.8946ZM59.4327 62.5723L58.4817 60.31C59.0312 60.0563 59.4539 59.7814 59.7498 59.4854C60.0597 59.1894 60.271 58.8089 60.3838 58.3437C60.5106 57.8786 60.574 57.2725 60.574 56.5254V46.8843H63.089V56.5254C63.089 57.5966 62.9622 58.5058 62.7086 59.2529C62.469 60.014 62.0816 60.6554 61.5462 61.1769C61.0249 61.7125 60.3204 62.1776 59.4327 62.5723ZM66.6854 56.8214V43.5014H69.2004V53.9883H71.4407V56.8214H66.6854ZM76.3868 53.9883H78.627V56.8214H70.596V53.9883H73.8718V46.8843H76.3868V53.9883ZM73.3223 61.4729C73.1393 61.4729 72.928 61.3883 72.6883 61.2191C72.463 61.05 72.2656 60.8456 72.0965 60.606C71.9274 60.3664 71.8429 60.162 71.8429 59.9929C71.8429 59.7955 71.9274 59.5841 72.0965 59.3586C72.2656 59.1331 72.463 58.9357 72.6883 58.7666C72.928 58.5974 73.1321 58.5129 73.3012 58.5129C73.5125 58.5129 73.7238 58.5974 73.9352 58.7666C74.1611 58.9357 74.3579 59.1331 74.5269 59.3586C74.696 59.5841 74.7806 59.7955 74.7806 59.9929C74.7806 60.162 74.696 60.3594 74.5269 60.5849C74.3579 60.8245 74.1611 61.0289 73.9352 61.198C73.71 61.3812 73.5059 61.4729 73.3223 61.4729ZM76.8517 61.4729C76.6688 61.4729 76.4574 61.3883 76.2177 61.2191C75.9925 61.05 75.795 60.8456 75.6259 60.606C75.4569 60.3664 75.3723 60.162 75.3723 59.9929C75.3723 59.7955 75.4569 59.5841 75.6259 59.3586C75.795 59.1331 75.9925 58.9357 76.2177 58.7666C76.4574 58.5974 76.6615 58.5129 76.8306 58.5129C77.0419 58.5129 77.2533 58.5974 77.4646 58.7666C77.6905 58.9357 77.8873 59.1331 78.0564 59.3586C78.2254 59.5841 78.31 59.7955 78.31 59.9929C78.31 60.162 78.2254 60.3594 78.0564 60.5849C77.8873 60.8245 77.6905 61.0289 77.4646 61.198C77.2394 61.3812 77.0353 61.4729 76.8517 61.4729ZM89.4022 53.9883H92.8894V56.8214H89.4022V53.9883ZM82.1531 49.4637C82.1531 50.4645 82.4067 51.3031 82.914 51.9797C83.4357 52.6563 84.2316 53.1637 85.3022 53.502C86.3734 53.8262 87.7399 53.9883 89.4022 53.9883V56.8214C88.0496 56.8214 86.7816 56.6171 85.598 56.2083C84.4145 55.7995 83.3723 55.2357 82.4702 54.5169C81.5825 53.798 80.8851 52.9664 80.3779 52.022C79.8852 51.0635 79.6382 50.0346 79.6382 48.9351C79.6382 48.3714 79.8218 47.9203 80.1876 47.582C80.5681 47.2296 81.1744 46.9829 82.0052 46.842C82.8367 46.7011 83.943 46.6306 85.3233 46.6306C86.7327 46.6306 87.8528 46.7011 88.6836 46.842C89.5152 46.9829 90.1142 47.2296 90.4801 47.582C90.8466 47.9203 91.0296 48.3714 91.0296 48.9351C91.0296 50.0346 90.7759 51.0635 90.2687 52.022C89.776 52.9805 89.0852 53.8191 88.1976 54.538C87.3099 55.2569 86.2677 55.8206 85.0697 56.2294C83.8862 56.6241 82.6115 56.8214 81.2444 56.8214V53.9883C82.9212 53.9883 84.295 53.8262 85.3656 53.502C86.4368 53.1637 87.2254 52.6563 87.7326 51.9797C88.2544 51.3031 88.5146 50.4645 88.5146 49.4637H82.1531ZM77.7783 53.9883H81.2444V56.8214H77.7783V53.9883ZM100.811 46.6306C101.797 46.6306 102.593 46.7363 103.199 46.9477C103.805 47.1591 104.248 47.5045 104.53 47.9837C104.812 48.4489 104.953 49.0691 104.953 49.8443V56.8214H92.04V53.9883H102.438V49.6117C102.171 49.5554 101.881 49.5201 101.572 49.506C101.276 49.4778 100.924 49.4637 100.515 49.4637C99.8948 49.4637 99.2396 49.506 98.5494 49.5906C97.8731 49.6751 97.2041 49.8091 96.5417 49.9923L95.5483 47.5397C96.0556 47.3283 96.5978 47.1591 97.1757 47.0323C97.7674 46.8914 98.3731 46.7926 98.9932 46.7363C99.6134 46.6658 100.219 46.6306 100.811 46.6306ZM95.8231 55.9334C95.4004 55.4542 95.1184 54.8551 94.9777 54.1363C94.8509 53.4174 94.7875 52.6211 94.7875 51.7471C94.7875 51.0001 94.8582 50.2883 94.9988 49.6117C95.1395 48.9351 95.3231 48.2445 95.5483 47.5397L98.0845 48.1317C97.8447 48.8224 97.6545 49.4496 97.5138 50.0134C97.3732 50.5772 97.3025 51.1551 97.3025 51.7471C97.3025 52.2828 97.3236 52.7549 97.3659 53.1637C97.4082 53.5725 97.4854 53.946 97.5984 54.2843C97.7113 54.6226 97.8659 54.9468 98.0633 55.2569L95.8231 55.9334Z" fill="#163754"/>
<path d="M134.419 35.4479L130.049 30.628H143.161L147.749 35.4479L129.645 54.2889H115.844L134.419 35.4479Z" fill="#F15C28"/>
<path d="M154.524 35.4477L136.167 53.6316L135.512 54.2888H148.842L167.636 35.4477L148.842 16.6065H120.215C119.865 16.6065 119.777 17.0447 119.777 17.2637C119.777 17.7895 120.069 17.921 120.215 17.921H127.863C128.213 17.921 128.3 18.3592 128.3 18.5782C128.3 19.104 128.009 19.2355 127.863 19.2355H119.122C118.772 19.2355 118.684 19.6736 118.684 19.8928C118.684 20.4186 118.976 20.5501 119.122 20.5501H125.678C126.027 20.5501 126.114 20.9882 126.114 21.2073C126.114 21.7331 125.823 21.8645 125.678 21.8645H122.182C121.831 21.8645 121.744 22.3027 121.744 22.5218C121.744 23.0476 122.036 23.179 122.182 23.179H129.174C129.524 23.179 129.612 23.6172 129.612 23.8363C129.612 24.362 129.32 24.4935 129.174 24.4935H121.963C121.439 24.4935 121.307 24.9317 121.307 25.1508C121.307 25.6766 121.744 25.808 121.963 25.808L145.346 26.0271L154.524 35.4477Z" fill="#163754"/>
<path d="M117.372 19.8243H116.501C116.138 19.8243 115.844 20.1185 115.844 20.4815C115.844 20.8445 116.138 21.1388 116.501 21.1388H117.372C117.735 21.1388 118.029 20.8445 118.029 20.4815C118.029 20.1185 117.735 19.8243 117.372 19.8243Z" fill="#163754"/>
<path d="M119.995 25.0822H119.123C118.76 25.0822 118.466 25.3765 118.466 25.7394C118.466 26.1024 118.76 26.3967 119.123 26.3967H119.995C120.357 26.3967 120.651 26.1024 120.651 25.7394C120.651 25.3765 120.357 25.0822 119.995 25.0822Z" fill="#163754"/>
<path d="M126.595 3.44302C133.578 0.639144 141.268 0.0830404 148.591 1.86285L149.297 2.04223C156.572 3.96621 163.072 8.11523 167.882 13.9189L168.341 14.4848C173.027 20.3748 175.761 27.5869 176.154 35.116L176.185 35.8438C176.417 43.1246 174.447 50.3068 170.53 56.4479L170.132 57.0583C165.951 63.3312 159.919 68.1355 152.884 70.8061L152.2 71.0578C145.102 73.5904 137.396 73.8381 130.16 71.7767L129.461 71.5699C122.36 69.3915 116.111 65.0809 111.555 59.2353L111.253 58.8475L111.638 58.5417L114.88 55.9737L115.273 55.664L115.579 56.0582L115.949 56.526C119.827 61.3169 125.051 64.8531 130.963 66.6667L131.563 66.8445C137.773 68.6139 144.387 68.4011 150.479 66.2274L151.065 66.0115C157.102 63.7193 162.279 59.5969 165.867 54.2135C169.455 48.8301 171.268 42.4641 171.061 36.0077L171.035 35.3831C170.697 28.9218 168.351 22.7327 164.33 17.6781L163.936 17.1922C159.808 12.2117 154.23 8.65068 147.987 6.99955L147.381 6.84593C141.097 5.31857 134.497 5.79552 128.505 8.20159L127.926 8.44097C124.28 9.99093 120.989 12.2146 118.212 14.9713L117.733 15.4462L117.423 14.8474L115.44 11.0212L115.265 10.6857L115.543 10.4289C118.573 7.63139 122.078 5.35499 125.922 3.72111L126.595 3.44302Z" fill="#163754" stroke="#163754" stroke-width="1.5"/>
</g>
</g>
<defs>
<clipPath id="clip0_4106_69858">
<rect width="177" height="74" fill="white"/>
</clipPath>
</defs>
</svg>
