<svg width="24" height="24" viewBox="0 0 24 24" fill="none" xmlns="http://www.w3.org/2000/svg">
<path d="M6.7 21C6.21667 21 5.78767 20.8417 5.41301 20.525C5.03834 20.2083 4.80901 19.8083 4.72501 19.325L3.20001 10.175C3.15001 9.875 3.22101 9.60433 3.41301 9.363C3.60501 9.12167 3.85901 9.00067 4.17501 9H19.825C20.1417 9 20.396 9.121 20.588 9.363C20.78 9.605 20.8507 9.87567 20.8 10.175L19.275 19.325C19.1917 19.8083 18.9627 20.2083 18.588 20.525C18.2133 20.8417 17.784 21 17.3 21H6.7ZM5.40001 11L6.67501 19H17.325L18.6 11H5.40001ZM10 15H14C14.2833 15 14.521 14.904 14.713 14.712C14.905 14.52 15.0007 14.2827 15 14C14.9993 13.7173 14.9033 13.48 14.712 13.288C14.5207 13.096 14.2833 13 14 13H10C9.71667 13 9.47934 13.096 9.28801 13.288C9.09667 13.48 9.00067 13.7173 9.00001 14C8.99934 14.2827 9.09534 14.5203 9.28801 14.713C9.48067 14.9057 9.71801 15.0013 10 15ZM6.00001 8C5.71667 8 5.47934 7.904 5.28801 7.712C5.09667 7.52 5.00067 7.28267 5.00001 7C4.99934 6.71733 5.09534 6.48 5.28801 6.288C5.48067 6.096 5.718 6 6.00001 6H18C18.2833 6 18.521 6.096 18.713 6.288C18.905 6.48 19.0007 6.71733 19 7C18.9993 7.28267 18.9033 7.52033 18.712 7.713C18.5207 7.90567 18.2833 8.00133 18 8H6.00001ZM8.00001 5C7.71667 5 7.47934 4.904 7.28801 4.712C7.09667 4.52 7.00067 4.28267 7.00001 4C6.99934 3.71733 7.09534 3.48 7.28801 3.288C7.48067 3.096 7.71801 3 8.00001 3H16C16.2833 3 16.521 3.096 16.713 3.288C16.905 3.48 17.0007 3.71733 17 4C16.9993 4.28267 16.9033 4.52033 16.712 4.713C16.5207 4.90567 16.2833 5.00133 16 5H8.00001Z" fill="#163754"/>
</svg>
